PathFileType	4	(X/Y/Z)	walk-thru1-2-TP.trc
DataRate	CameraRate	NumFrames	NumMarkers	Units	OrigDataRate	OrigDataStartFrame	OrigNumFrames
120.00	120.00	       4	60	mm	120.00	441	       503
Frame#	Time	Top.Head			Front.Head			Rear.Head			Jaw			C7			R.Clavicle			L.Clavicle			R.Shoulder			L.Shoulder			R.Scapula			L.Scapula			R.Scap.Inf			R.Biceps.Lateral			R.Elbow			R.Elbow.Medial			R.Forearm			R.Ulna			R.Radius			R.Wrist			R.Thumb.M1			R.Thumb.M2			R.Thumb.M3			R.Finger3.M1			R.Finger3.M2			R.Finger3.M3			L.Biceps.Lateral			L.Elbow			L.Elbow.Medial			L.Forearm			L.Ulna			L.Radius			L.Wrist			L.Thumb.M1			L.Thumb.M2			L.Thumb.M3			L.Finger3.M1			L.Finger3.M2			L.Finger3.M3			V.Sacral			R.ASIS			L.ASIS			R.Thigh			R.Thigh.Front			R.Knee			R.Knee.Medial			R.Shank			R.Ankle			R.Ankle.Medial			R.Heel			R.Toe			R.MedFoot			L.Thigh			L.Knee			L.Knee.Medial			L.Shank			L.Ankle			L.Ankle.Medial			L.Heel			L.Toe			L.MedFoot			V_mid_ASIS			V_R_Knee_JC			V_L_Knee_JC			V_R_Elbow_JC			V_L_Elbow_JC			V_R_Ankle_JC			V_L_Ankle_JC			V_R_Wrist_JC			V_L_Wrist_JC			V_R_ScaTrpz_1stMC_JC			V_R_1stMC_1stPP_JC			V_R_1stPP_1stDP_JC			V_R_LunCap_3rdMC_JC			V_R_3rdMC_3rdPP_JC			V_R_3rdPP_3rdMP_JC			V_R_3rdMP_3rdDP_JC			V_L_ScaTrpz_1stMC_JC			V_L_1stMC_1stPP_JC			V_L_1stPP_1stDP_JC			V_L_LunCap_3rdMC_JC			V_L_3rdMC_3rdPP_JC			V_L_3rdPP_3rdMP_JC			V_L_3rdMP_3rdPP_JC			V_ROOT_JC			V_R_Hip_JC			V_L_Hip_JC			V_R_GlenHum_JC			V_L_GlenHum_JC			V_ForeHead_Ctr			V_Vertex			V_Sagit_Lambdoid_Suture			V_R_FrontoTemp			V_L_FrontoTemporal			V_R_ParietalOccip			V_L_ParietalOcciptal			V_R_Temporal			V_L_Temporal			V_mid_FrontRearHead			V_mid_RLGlenHumCtrs			V_C7_vert			V_C1_vert			V_Mid_Hip			
		X1	Y1	Z1	X2	Y2	Z2	X3	Y3	Z3	X4	Y4	Z4	X5	Y5	Z5	X6	Y6	Z6	X7	Y7	Z7	X8	Y8	Z8	X9	Y9	Z9	X10	Y10	Z10	X11	Y11	Z11	X12	Y12	Z12	X13	Y13	Z13	X14	Y14	Z14	X15	Y15	Z15	X16	Y16	Z16	X17	Y17	Z17	X18	Y18	Z18	X19	Y19	Z19	X20	Y20	Z20	X21	Y21	Z21	X22	Y22	Z22	X23	Y23	Z23	X24	Y24	Z24	X25	Y25	Z25	X26	Y26	Z26	X27	Y27	Z27	X28	Y28	Z28	X29	Y29	Z29	X30	Y30	Z30	X31	Y31	Z31	X32	Y32	Z32	X33	Y33	Z33	X34	Y34	Z34	X35	Y35	Z35	X36	Y36	Z36	X37	Y37	Z37	X38	Y38	Z38	X39	Y39	Z39	X40	Y40	Z40	X41	Y41	Z41	X42	Y42	Z42	X43	Y43	Z43	X44	Y44	Z44	X45	Y45	Z45	X46	Y46	Z46	X47	Y47	Z47	X48	Y48	Z48	X49	Y49	Z49	X50	Y50	Z50	X51	Y51	Z51	X52	Y52	Z52	X53	Y53	Z53	X54	Y54	Z54	X55	Y55	Z55	X56	Y56	Z56	X57	Y57	Z57	X58	Y58	Z58	X59	Y59	Z59	X60	Y60	Z60	

441	3.667	1070.01526	-16.48590	1799.78833	1168.08728	-7.02123	1684.71338	940.64465	-14.49449	1703.92627	1119.32715	-9.86011	1519.38196	926.06061	-12.75560	1565.16895	1024.81677	-126.56017	1470.90710	1029.50757	99.56789	1474.89087	984.66931	-215.00810	1465.67529	960.21948	195.79843	1485.32898	876.18695	-99.69115	1480.96094	872.25922	66.94350	1486.18604	827.75635	-111.11673	1394.48010	933.60382	-275.51584	1288.58752	896.59747	-293.07089	1136.28662	877.48407	-205.38681	1119.12537	983.12280	-241.63223	1022.51575	950.92877	-283.78308	921.25031	1013.55493	-221.75302	892.48120	1008.24445	-261.72870	843.22052	1024.39563	-216.87497	859.87958	1060.89148	-185.69714	818.17963	1099.40649	-185.70175	792.96295	1049.45044	-263.35602	772.61169	1066.57520	-221.95197	721.08002	1056.78833	-177.58775	696.56683	932.31555	258.31323	1337.12207	911.49841	302.13510	1159.70325	870.31635	233.53674	1144.29114	981.82373	278.64200	1057.45813	930.48529	297.51831	966.92712	1001.70258	251.58067	918.18829	992.58820	284.33749	858.86200	1012.43109	238.46121	853.78894	1012.90588	202.72206	804.92578	1021.67529	206.68756	745.14752	1010.11975	298.47833	785.59717	1003.20581	277.57422	728.45349	981.99091	254.55399	684.43835	833.22278	-4.66124	1089.06458	936.36847	-190.12433	1034.69312	928.46252	184.23634	1026.81702	1042.96899	-145.83003	638.65717	1131.55481	-62.16455	580.46741	1085.62695	-117.38496	513.52740	1085.54077	-3.39637	517.59772	1101.37415	-72.06407	332.54651	1008.57904	-93.97363	76.26302	1046.73108	0.98511	99.26809	955.01288	-33.04509	49.84318	1194.59180	-56.58579	53.31245	1123.77661	-18.29875	75.56287	987.50629	195.52139	646.05585	1008.31110	187.39594	496.29984	1032.58899	72.07145	489.95874	903.69556	129.70432	327.50244	675.37866	135.80501	200.94722	731.88489	48.01748	210.88580	636.96735	76.46075	236.83194	761.30859	70.79837	58.90081	753.65417	52.19939	112.30795																																																																																																																															
442	3.675	1076.23572	-16.70764	1800.19019	1174.74133	-7.62761	1685.47974	948.88483	-15.34511	1702.83398	1126.16907	-11.01858	1520.01123	934.21985	-14.54869	1567.61011	1030.64282	-125.71445	1470.30786	1035.34717	100.17613	1474.85974	991.99799	-214.79364	1465.11438	966.00043	194.70442	1485.49597	881.73932	-101.92844	1481.49585	878.06281	66.84209	1486.71777	833.66986	-111.65234	1395.08191	941.78198	-276.68521	1288.90588	905.64703	-294.54858	1136.53027	886.48718	-206.36978	1119.37305	992.25244	-243.22142	1022.83795	960.52478	-285.24393	921.11310	1021.85931	-223.64923	893.62286	1018.42566	-262.15033	843.44879	1033.40051	-217.79465	859.87921	1071.34521	-186.06607	818.90460	1109.47473	-184.93884	793.84424	1059.10913	-264.19086	773.13745	1077.00281	-222.80995	722.17816	1065.79614	-178.60413	697.54449	936.68555	256.71747	1337.99097	915.48303	301.06119	1161.07458	873.23486	233.01855	1144.50037	984.34253	278.03549	1057.74146	932.89368	297.50980	967.36493	1005.28381	251.52843	918.23761	995.61548	284.37479	859.43823	1016.27960	238.49487	854.22400	1015.13568	201.41328	806.45282	1026.95142	207.41606	744.73254	1012.97839	298.67810	785.88544	1004.96692	277.31888	728.76025	984.85791	253.37381	684.46942	839.27197	-5.27107	1089.34546	941.08789	-189.94528	1034.81726	935.43164	183.25836	1027.00073	1047.10156	-146.41597	638.75562	1136.10754	-63.56688	579.66071	1088.35559	-118.11305	512.92828	1087.88000	-5.27252	515.40063	1103.45508	-71.68305	331.31976	1009.31061	-93.14960	76.18638	1046.74133	0.99890	99.17662	954.94720	-32.84023	49.93772	1194.78699	-57.14255	52.88569	1123.98193	-17.54282	74.97939	998.91486	195.70049	647.47003	1021.16016	187.73514	497.83847	1043.10132	70.96459	491.77383	917.25940	129.73116	330.03824	687.77875	136.37488	204.06255	743.89374	48.89353	213.25708	648.87042	77.58900	238.48183	776.79779	73.46198	61.51052	766.81781	53.50234	115.04156																																																																																																																															
443	3.683	1082.08887	-17.60546	1800.33679	1179.79663	-8.01597	1685.33350	953.74298	-16.31898	1703.71521	1132.19348	-10.55883	1521.73926	939.12347	-14.57877	1568.28357	1038.04260	-126.69478	1471.51099	1041.14075	99.84572	1475.45410	999.07727	-215.90208	1465.70911	971.31378	192.41165	1485.80383	888.77539	-103.35853	1481.54932	883.97528	66.39655	1486.19873	839.45142	-113.77618	1395.28076	949.65234	-277.57379	1289.23242	914.30536	-296.03818	1136.38550	892.67023	-209.02560	1118.98718	1001.10474	-243.88397	1022.64056	969.28131	-285.93533	921.14496	1030.39136	-224.43166	892.92834	1027.77368	-263.11905	843.87848	1041.90356	-218.04735	860.54724	1078.92712	-186.48186	819.36713	1119.02478	-185.25786	794.58368	1069.43921	-264.66266	774.30603	1086.01343	-223.55731	722.38257	1076.04443	-178.92209	698.12781	941.85175	257.11960	1337.73926	920.14838	301.02634	1161.20764	878.69031	232.53331	1146.17639	988.68213	277.81451	1058.06995	936.70886	297.98813	967.79443	1007.41174	250.47557	917.75488	997.36188	283.13120	859.61353	1019.05664	237.93283	853.57428	1017.58643	200.78113	806.45758	1026.88550	206.10640	745.09131	1015.09827	298.76041	786.07483	1007.56305	277.00040	729.16766	986.84937	253.83131	685.35083	846.07007	-5.69830	1089.05444	949.36584	-190.71500	1034.35083	941.34900	183.65849	1027.89172	1051.47668	-147.98019	638.18707	1140.16455	-63.48240	578.77234	1091.14624	-119.42407	512.17993	1091.54993	-5.40304	515.11981	1105.64783	-72.53706	330.91193	1008.65735	-93.99835	76.56004	1046.74133	0.99890	99.17662	954.99036	-32.77855	49.96840	1195.02063	-56.97827	52.61691	1124.22473	-17.57181	75.04392	1009.93134	194.53603	648.62903	1034.31274	187.32997	499.21216	1054.13660	70.05853	493.30804	929.65607	130.59904	332.03592	701.11047	137.72997	205.83295	756.62054	49.09633	215.44022	661.21973	77.22231	238.72606	791.64313	77.13852	63.30132	780.90857	54.97146	116.77847																																																																																																																															
444	3.692	1089.22083	-18.28572	1800.69141	1186.00781	-8.74434	1686.04199	959.83221	-15.70783	1703.74109	1139.19910	-11.12462	1520.78345	945.99213	-14.53069	1568.84595	1045.49841	-127.60854	1470.82471	1046.86621	98.89467	1475.91626	1004.85590	-216.79672	1465.92432	977.85059	193.29312	1485.78748	894.56433	-103.02052	1482.24634	890.28961	64.30363	1487.26233	845.76569	-114.32558	1396.12817	957.80774	-277.48203	1288.96533	923.08008	-296.85300	1135.76453	901.75696	-209.72624	1118.02039	1009.61963	-245.23891	1023.06049	978.76630	-287.23514	921.15137	1040.76038	-225.31104	894.21527	1037.22949	-264.45908	844.50781	1052.03198	-219.63910	861.26727	1088.30811	-187.17366	820.52295	1126.83997	-183.22438	794.74408	1079.21179	-265.36749	774.98193	1096.06860	-224.19580	723.04279	1086.08801	-179.60327	698.44214	946.47784	255.60750	1338.55737	923.81812	299.08734	1161.96619	882.07074	230.24651	1146.80444	992.38080	277.00497	1058.90991	939.28333	297.20383	968.75928	1010.69269	250.53889	918.04205	999.85284	283.51825	860.26489	1022.43683	238.98181	854.54907	1021.48676	200.87935	805.89624	1026.88550	206.10640	745.09131	1018.00879	299.06351	786.71704	1009.60846	276.83487	729.60187	990.61884	254.54939	686.74420	851.49097	-6.24290	1089.17053	953.00769	-190.78937	1035.15186	950.00903	182.84604	1028.32043	1055.80688	-148.06956	637.96375	1147.08655	-63.78713	577.37299	1095.20459	-119.06287	511.60779	1090.17944	-7.16817	513.53906	1106.88562	-72.55871	330.21552	1008.86432	-94.08527	76.45999	1047.20190	0.98393	98.88140	955.55023	-32.08799	50.02412	1194.96448	-57.04585	52.54874	1124.34167	-17.60598	74.78268	1021.73138	194.99536	649.75909	1046.95483	187.04277	501.06485	1065.63647	68.51553	494.76169	941.93542	129.42010	333.34052	715.80847	139.11290	207.32848	769.45978	49.34231	215.52130	673.74353	77.46030	238.97769	807.11938	80.11732	65.48588	795.94257	58.02023	117.95627																																																																																																																															
